<svg id="Layer_1" data-name="Layer 1" xmlns="http://www.w3.org/2000/svg" viewBox="0 0 122.88 39.71"><defs><style>.cls-1,.cls-2,.cls-3,.cls-4{fill-rule:evenodd;}.cls-2{fill:#8b8a8a;}.cls-3{fill:#ed2127;}.cls-4{fill:#fff;}</style></defs><title>msi-laptop</title><path class="cls-1" d="M114.17,9.86,113.05,13a50.29,50.29,0,0,1,8.71-.88L122.88,9a50.61,50.61,0,0,0-8.71.87Zm1,20.41L121,14.2a50.61,50.61,0,0,0-8.71.87l-5.51,15.2Z"/><path class="cls-1" d="M83.79,26.45a44.8,44.8,0,0,0,8.08.73c1.81,0,4.83-.21,5.1-2.55.11-.92-.88-1.54-2.47-2.42-1.81-1-3.2-1.53-4.78-2.58A3.88,3.88,0,0,1,88,15.16C89.59,9.89,97.29,9,101.83,9a48.36,48.36,0,0,1,9.15.87l-1.07,2.94c-2.73-.5-12.72-2.2-13.19,1.83-.1.91.82,1.51,2.41,2.38,1.81,1,3.27,1.56,4.85,2.62a3.85,3.85,0,0,1,1.72,4.47c-1.59,5.26-9.28,6.17-13.83,6.17a47.68,47.68,0,0,1-9.15-.88l1.07-2.94Z"/><path class="cls-1" d="M71.14,30.27,76,16.86c1.91-5.27-7.15-3.17-9.31,2.77L62.83,30.27H54.44L59.3,16.86c1.91-5.27-7.15-3.17-9.3,2.77L46.14,30.27H37.75L45.46,9c2.68,0,4.12.61,5.34,1.81a3.35,3.35,0,0,1,.87,1.6,28.29,28.29,0,0,1,3.9-2A17.68,17.68,0,0,1,62.16,9c2.67,0,4.12.61,5.33,1.81a3.35,3.35,0,0,1,.87,1.6,28.87,28.87,0,0,1,3.91-2A17.63,17.63,0,0,1,78.85,9c2.68,0,4.12.61,5.33,1.81s1.19,3.36.75,4.57l-5.4,14.9Z"/><path class="cls-2" d="M.48,6.5A45.57,45.57,0,0,1,16.41,0l.17,0,.16,0A45.6,45.6,0,0,1,32.66,6.5l.48.3v.56c0,7.1-1.1,14.67-4.36,21.05-2.55,5-6.47,9.31-11.88,11.18l-.32.12h0l-.33-.12c-5.4-1.87-9.33-6.19-11.87-11.18C1.11,22,0,14.46,0,7.36V6.8l.48-.3Z"/><path class="cls-3" d="M1,7.37A44.93,44.93,0,0,1,16.57,1h0A44.89,44.89,0,0,1,32.12,7.37c.1,16.41-6.24,28-15.54,31.26h0C7.27,35.4.93,23.78,1,7.37Z"/><path class="cls-1" d="M21.85,8.87a2.38,2.38,0,0,0,.39.45.7.7,0,0,0,.69.22,1.43,1.43,0,0,0-.19-.42c0-.06-.11-.08-.19-.09l-.7-.16ZM16.1,4.73h0a10.27,10.27,0,0,0,3.75,3.09,3.17,3.17,0,0,0,1.35.39c.28,0,.54-.17.82-.17a1.55,1.55,0,0,1,.88.3.31.31,0,0,1,.14.18,1.59,1.59,0,0,0,.44.91.93.93,0,0,0,.72.1.52.52,0,0,0,.38.42c.21.05.39-.18.63-.11.09.12.15.24.25.37s.24.11.34.18a2.19,2.19,0,0,1,.84,1,2.26,2.26,0,0,0-.88-.69c0,.54,0,1.3-.39,1.59a1.84,1.84,0,0,0-.2-1,2.74,2.74,0,0,1-1.06.64c.16-.2.47-.41.37-.66a.84.84,0,0,0-.65-.09,2.33,2.33,0,0,0-.93.5,4.33,4.33,0,0,0-.21-.54c-.2,0-.9.27-.7.58s.8.23,1.09.29a.81.81,0,0,1,.43.38c0-.14,0-.29,0-.43a9.13,9.13,0,0,1,.83,1.16c.36-.15.43-.32.47-.77A1.15,1.15,0,0,1,25,13a.61.61,0,0,0,.23-.29,1.51,1.51,0,0,1-.88,1.82c.16-.41.22-.76-.34-.76A12.6,12.6,0,0,0,22.7,14c.17-.09.91-.51.78-.75a.45.45,0,0,0-.27-.17,4.77,4.77,0,0,0-.83-.28c-.14,0-.27.09-.39.14-.72-.35-1,.08-1.49.15a1.34,1.34,0,0,1-1.28-.6c-.58-.89.28-1.44,1-1.67-1-.11-1.35.22-1.58,1.18a7.46,7.46,0,0,0-1.26-.27c-3.19-.47-5.72.47-7.18,2a8.91,8.91,0,0,0-2.28,5.72c0,2.06.59,3.27,1.66,5.08A9.54,9.54,0,0,1,6.9,20.58c-.2.23-.14.51-.19.77-.9-1.22.35-4.3.94-5.68a4.29,4.29,0,0,0-1.09.93C6.5,14.85,8,13.09,9.62,11.66a4.89,4.89,0,0,0-1.29.48,10.3,10.3,0,0,1,6.76-2.61,15,15,0,0,0-1.91-.34c2-.4,3.28-.42,4.6-1.29.61.4,1.32.8,1.67.7-1.05-.75-3-2.5-3.35-3.87Zm-1,1.56a27.49,27.49,0,0,0,2.42,1.43c-.17.14-.37.35-.6.34a5.8,5.8,0,0,1-1.82-1.77Zm-9.88,3.8a1.24,1.24,0,0,1,.74.09,1.38,1.38,0,0,1,.57.55c.06.11.13.23.08.34l-.23,0c-.06.06,0,.15,0,.22a3.5,3.5,0,0,0,.39,1.11.37.37,0,0,0,.12.13A4.72,4.72,0,0,1,7,11.34c0-.06.06-.14.15-.15s.26.12.4.1.11-.2.1-.29c0-.25-.29-.43-.45-.63a2.13,2.13,0,0,1,.86.85.5.5,0,0,1-.15.62.53.53,0,0,1-.35,0,.88.88,0,0,0-.17.89c0,.07,0,.2.18.19a3.15,3.15,0,0,0,.68-.36,7.64,7.64,0,0,0-1.34,1.83,1.74,1.74,0,0,0,0-.51.39.39,0,0,0-.24-.21c-.26-.13-.56-.2-.83-.32a1.91,1.91,0,0,1-.6-.6c-.11-.13-.33-.06-.46-.17a1.84,1.84,0,0,1-.06-.4c0-.21-.06-.49-.29-.62a1.6,1.6,0,0,0-.82-.14h0a1.46,1.46,0,0,1,.66-.12,1.38,1.38,0,0,1,.88.49c.15.17.12.39.26.56a1.58,1.58,0,0,0,.41.29,1.48,1.48,0,0,0,.51.23.6.6,0,0,0-.14-.58,1.74,1.74,0,0,1-.42-.94,1,1,0,0,1,.12-.67c0-.11.16-.23.07-.34s-.48-.21-.73-.28ZM21.32,15c.21-.16.39-.33.58-.5a7.84,7.84,0,0,1-4.77,2.74c-.86.18-2.75.4-3.54,0-.09,0-.18-.15-.09-.22a.82.82,0,0,1,.5-.08c.33,0,.69,0,1,0a15.28,15.28,0,0,0,2.61-.25A9.21,9.21,0,0,0,21.32,15Zm-1.63,2.88c1.6-.09,3.23.52,3.74,2.06a2.18,2.18,0,0,0-1.4-.35c-.09,0-.18.07-.19.15s.05.24.1.37A1.9,1.9,0,0,1,20,19.38a2.37,2.37,0,0,0,.62.25,1.21,1.21,0,0,0,1.11-.37c.16-.17.06-.38-.13-.51a6.88,6.88,0,0,0-1.94-.84Zm-7.39.33c.17.13.22.3.39.43,1.56,1.19,2.94,1.18,4.93,1.25a6,6,0,0,1-5.27-1,2.09,2.09,0,0,1-.4-.51c-.09-.28.15-.31.35-.15Zm7.08.37a2,2,0,0,0,1.3,1.65,8.11,8.11,0,0,0,2.78,0,3,3,0,0,1,1.91.21,1.6,1.6,0,0,1,.51.66,7.27,7.27,0,0,1,.33.76.85.85,0,0,1-.1.71,2.15,2.15,0,0,0-.37.95c0,.32-.1.64-.16,1a3.34,3.34,0,0,1-.3,1c-.16.28-.44.49-.62.76A4.88,4.88,0,0,0,24,27.62c-.13.37-.18.76-.29,1.14a1.31,1.31,0,0,1-.63.83c-.53.27-1.18.34-1.75.56a5.29,5.29,0,0,0-1.27.84,2.22,2.22,0,0,1-1.07.6c-.86.13-1.08-.56-2.63,0a.68.68,0,0,1-.59,0c-.37-.18-.41-.68-.83-.91a5.64,5.64,0,0,0-1.38-.29.69.69,0,0,1-.48-.31c-.14-.27-.14-.57-.25-.84-.31-.62-1.29-.81-1.58-1.38s.1-.89.11-1.37-.46-.95-1.3-1a4.79,4.79,0,0,0,.79-1.93,1.26,1.26,0,0,1,.45-.71,3.3,3.3,0,0,1,.9-.31,1.91,1.91,0,0,1,1.06.05,1.4,1.4,0,0,1,.2,2.05c-.57.64-2,.51-1.75-.5.29.25.58.63,1,.18,0,0,.06-.1,0-.15a.63.63,0,0,0-.4-.41.53.53,0,0,0-.37,0,1.33,1.33,0,0,0-.84.68c-.32.63.37,1.14,1.17,1a3.12,3.12,0,0,0,1.56-.85,15.28,15.28,0,0,0,.07,2.23,6.28,6.28,0,0,0,.57,1.8,2.47,2.47,0,0,0,1.28,1.13,5.05,5.05,0,0,0,2,.25,9.53,9.53,0,0,0,3.79-1A5.16,5.16,0,0,0,24,26.33a14.09,14.09,0,0,0,.85-1.91,5.71,5.71,0,0,0,.41-1.94,1.79,1.79,0,0,0-.36-1.14c-.66-.83-2.06-.47-3.35-.51a.54.54,0,0,0,0,.63c.31.34,1.08.28,1.59.32-2.21.9-4.18-.08-4.73-1.81.46.57,1.2,1.75,2.33,1.4.41-.12.22-.42.09-.64s-.18-.08-.26-.11a1.68,1.68,0,0,1-1.2-2ZM26.16,21a2.46,2.46,0,0,0,.4-.19.62.62,0,0,1-.34.41.11.11,0,0,1-.06-.22ZM26,23.37c0-.09.14-.12.24-.11s.38,0,.57,0a1,1,0,0,1-.56.32c-.15,0-.29-.08-.25-.2ZM15.48,24a3,3,0,0,1,.9-.19,1.31,1.31,0,0,0-.69.39c-.06.08-.12.21,0,.29s.27,0,.39.09.08.21.06.31a3.11,3.11,0,0,1-.46.93.31.31,0,0,0-.07.22c.09,0,.16-.06.23-.1a3.84,3.84,0,0,0,.76-.61c.09-.12.23-.22.24-.35s-.18-.15-.19-.25a1,1,0,0,1,.49-.35,1.26,1.26,0,0,1,1.35.22,3.79,3.79,0,0,0-.66-.18c-.12,0-.26.05-.28.15s0,.25-.05.38A1.67,1.67,0,0,1,16.56,26a2.12,2.12,0,0,0-.5.25.41.41,0,0,0-.16.31,1.29,1.29,0,0,0,.35.05,1.87,1.87,0,0,0,.78-.06c.22-.09.31-.3.55-.38a1.44,1.44,0,0,1,1.65.51,5.77,5.77,0,0,0-.55-.29.72.72,0,0,0-.64.08,1.65,1.65,0,0,0-.41.47.22.22,0,0,1-.17.14c-.16,0-.31-.1-.48-.06s-.42.17-.65.22a1,1,0,0,1-.48,0,5.87,5.87,0,0,0-.84-.13c-.13,0-.29,0-.36.1a.77.77,0,0,0-.12.44,5.9,5.9,0,0,1-.24-1.09,4.92,4.92,0,0,1,0-1.38,1.17,1.17,0,0,1,.2.62.26.26,0,0,0,.22.24.56.56,0,0,0,.41-.26,1.15,1.15,0,0,0,.28-.75c0-.12-.19-.12-.26-.21a.44.44,0,0,1-.06-.49.77.77,0,0,1,.45-.39Zm-5.07,2a.39.39,0,0,1,.28,0,.41.41,0,0,1,.31.41c0,.18,0,.41-.2.53a12.86,12.86,0,0,0-1.23.62,1.3,1.3,0,0,0-.3.32,2.84,2.84,0,0,1,.6-1.45,1.77,1.77,0,0,1,.54-.43Zm14,1.1c0-.13.1-.24.22-.3a1.62,1.62,0,0,1,.65.22,1,1,0,0,0,.38.08,1.48,1.48,0,0,1-.83.25c-.18,0-.39-.1-.42-.25Zm-12.2,2a.46.46,0,0,1,.47.1c.13.13.07.31.06.46s-.1.18-.21.24c-.29.13-.63.26-.92.41a1.22,1.22,0,0,0-.47.39,2.42,2.42,0,0,1,.26-.77,1.85,1.85,0,0,1,.81-.83Zm9,1.38a.32.32,0,0,1,.3,0,.4.4,0,0,1,.17.27,4.6,4.6,0,0,0,.14.74c0,.09.11.19.16.28a1.42,1.42,0,0,1-.58-.39A1.19,1.19,0,0,1,21,30.8a.3.3,0,0,1,.17-.34Zm-6.85.35a.45.45,0,0,1,.55,0,.55.55,0,0,1,.1.56,2.41,2.41,0,0,1-.56.42,1.76,1.76,0,0,0-.75.73,2.73,2.73,0,0,1,.22-1.12,1.34,1.34,0,0,1,.44-.6Zm2.88.9a.33.33,0,0,1,.36-.12.37.37,0,0,1,.22.57c-.19.26-.5.45-.71.7a1.09,1.09,0,0,0-.19.37h0a1.89,1.89,0,0,1,.32-1.52Zm3.9-18c-2,2.37-5.3,2.71-7.55,2.8-.25,0-.76.06-.89.24a.3.3,0,0,0,.11.37c2.54,1.8,5.85.48,7.59-.37-2,1.8-5.4,2.12-8.29,1.06-.37-.13-.61-.17-.73,0a.39.39,0,0,0,0,.46c.81,1.52,1.4,2.69,3.46,3.34-2.39-.14-3.9-2.42-4.25-3.63,0,2,1.74,3.44,2.47,4.25-.95,0-1.88.11-2.29.82-.29.45-.28,1.11-.68,1.7-1.1-2.07-2-5-1.16-7.5a7.35,7.35,0,0,1,4.34-4.81,19.63,19.63,0,0,0-1.79,2.27c-.44.83.1,1.12.72.06.86,2.07,7,.83,8.65-1.15l.59-.25-.29.38Z"/><path class="cls-4" d="M21.74,8.61a5.46,5.46,0,0,0,.39.45.72.72,0,0,0,.69.22,1.46,1.46,0,0,0-.18-.43.29.29,0,0,0-.19-.09c-.24,0-.47-.11-.71-.15ZM16,4.46h0a10.21,10.21,0,0,0,3.76,3.09,3.12,3.12,0,0,0,1.34.39c.28,0,.55-.16.83-.17a1.63,1.63,0,0,1,.88.3.28.28,0,0,1,.13.19,1.55,1.55,0,0,0,.45.9.83.83,0,0,0,.71.1.57.57,0,0,0,.38.43c.22,0,.4-.18.63-.12s.15.25.25.37.24.11.35.19a2,2,0,0,1,.83.95,2.3,2.3,0,0,0-.87-.69c0,.55,0,1.31-.39,1.6a1.92,1.92,0,0,0-.21-1,2.72,2.72,0,0,1-1.06.63c.16-.19.48-.41.38-.65a.83.83,0,0,0-.66-.09,2.15,2.15,0,0,0-.92.49,3.6,3.6,0,0,0-.22-.54c-.19,0-.9.27-.7.59s.8.23,1.1.28a.85.85,0,0,1,.43.38c0-.14,0-.28.05-.43a11.35,11.35,0,0,1,.83,1.17c.35-.16.42-.32.47-.77a1.21,1.21,0,0,1,.16.67.76.76,0,0,0,.22-.3,1.5,1.5,0,0,1-.88,1.83c.16-.41.22-.77-.33-.77a13.19,13.19,0,0,0-1.36.21c.17-.09.92-.51.79-.75s-.17-.12-.28-.17a3.67,3.67,0,0,0-.83-.27c-.14,0-.26.08-.39.13-.71-.34-1,.08-1.48.16a1.41,1.41,0,0,1-1.29-.6c-.57-.9.29-1.44,1-1.67-1-.11-1.35.21-1.58,1.17a8.59,8.59,0,0,0-1.26-.27c-3.19-.47-5.72.47-7.18,2a8.82,8.82,0,0,0-2.28,5.72,8.57,8.57,0,0,0,1.66,5.08,9.72,9.72,0,0,1-2.7-3.93c-.19.22-.13.5-.19.76-.89-1.22.35-4.29.94-5.67a4,4,0,0,0-1.08.92c-.06-1.74,1.48-3.51,3.05-4.93a4.48,4.48,0,0,0-1.28.47A10.25,10.25,0,0,1,15,9.27a11.79,11.79,0,0,0-1.9-.34c1.94-.41,3.28-.42,4.59-1.29.61.39,1.33.8,1.68.69-1.05-.75-3-2.5-3.35-3.87ZM15,6a25.39,25.39,0,0,0,2.43,1.43c-.17.14-.37.35-.6.34A5.84,5.84,0,0,1,15,6ZM5.08,9.83a1.15,1.15,0,0,1,.73.08,1.31,1.31,0,0,1,.58.56.39.39,0,0,1,.08.34l-.23,0c-.07.06,0,.15,0,.23a3.56,3.56,0,0,0,.4,1.1.37.37,0,0,0,.12.13,5.17,5.17,0,0,1,.13-1.24A.24.24,0,0,1,7,10.92c.14,0,.25.12.4.1s.11-.19.1-.29c0-.25-.29-.42-.45-.63A2.17,2.17,0,0,1,7.9,11a.49.49,0,0,1-.15.62.51.51,0,0,1-.35,0,.91.91,0,0,0-.16.89c0,.07,0,.21.17.2a2.68,2.68,0,0,0,.69-.37,7.38,7.38,0,0,0-1.34,1.83,1.74,1.74,0,0,0,0-.51.43.43,0,0,0-.23-.21c-.26-.13-.57-.2-.84-.32a2,2,0,0,1-.6-.59c-.11-.14-.32-.07-.46-.18a1.68,1.68,0,0,1-.06-.4c0-.2,0-.48-.28-.62a1.73,1.73,0,0,0-.83-.14h0a1.29,1.29,0,0,1,.67-.12,1.34,1.34,0,0,1,.88.49c.15.17.11.39.26.55a1.28,1.28,0,0,0,.4.29,1.77,1.77,0,0,0,.52.24A.62.62,0,0,0,6,12.06a1.73,1.73,0,0,1-.42-1,1.05,1.05,0,0,1,.11-.67c.06-.1.16-.23.07-.34s-.47-.21-.72-.27Zm16.14,4.93c.21-.15.38-.33.58-.49A7.89,7.89,0,0,1,17,17c-.86.17-2.75.39-3.54,0-.09,0-.18-.15-.1-.23a.84.84,0,0,1,.5-.08c.34,0,.69,0,1,0a15.3,15.3,0,0,0,2.62-.25,9.2,9.2,0,0,0,3.68-1.64Zm-1.63,2.88c1.59-.08,3.22.52,3.74,2.07a2.2,2.2,0,0,0-1.41-.36.23.23,0,0,0-.19.15c0,.14.05.24.1.37a1.9,1.9,0,0,1-1.9-.75,3.09,3.09,0,0,0,.62.25A1.24,1.24,0,0,0,21.66,19c.15-.17.05-.39-.13-.52a7.32,7.32,0,0,0-1.94-.84ZM12.2,18c.17.13.22.3.39.43,1.56,1.19,2.94,1.19,4.93,1.25a6,6,0,0,1-5.27-1,1.61,1.61,0,0,1-.4-.51c-.1-.28.15-.31.35-.15Zm7.08.37A2,2,0,0,0,20.57,20a8.17,8.17,0,0,0,2.79,0,3.08,3.08,0,0,1,1.91.21,1.47,1.47,0,0,1,.5.67c.12.25.25.5.34.75a.91.91,0,0,1-.1.72,2.16,2.16,0,0,0-.37.94c0,.32-.1.64-.16,1a3.37,3.37,0,0,1-.31,1,7.36,7.36,0,0,1-.62.76,5.13,5.13,0,0,0-.64,1.39c-.13.38-.18.76-.29,1.14a1.27,1.27,0,0,1-.64.83,14.13,14.13,0,0,1-1.74.56,5.48,5.48,0,0,0-1.28.85,2.25,2.25,0,0,1-1.06.59c-.86.13-1.08-.55-2.64,0a.71.71,0,0,1-.59,0c-.37-.18-.41-.69-.82-.91a5.3,5.3,0,0,0-1.38-.29.7.7,0,0,1-.49-.32c-.13-.27-.13-.57-.25-.84-.3-.61-1.29-.81-1.57-1.37s.1-.9.1-1.37c0-.63-.45-1-1.29-1a5.21,5.21,0,0,0,.79-1.94,1.34,1.34,0,0,1,.44-.71,3.36,3.36,0,0,1,.91-.3,1.75,1.75,0,0,1,1.06,0,1.38,1.38,0,0,1,.19,2c-.57.64-2,.52-1.75-.49.3.25.58.62,1,.18a.24.24,0,0,0,.05-.16.64.64,0,0,0-.41-.41.58.58,0,0,0-.37,0,1.34,1.34,0,0,0-.84.69c-.32.63.37,1.13,1.17,1a3.11,3.11,0,0,0,1.57-.85,12.89,12.89,0,0,0,.07,2.23,6.07,6.07,0,0,0,.56,1.8,2.53,2.53,0,0,0,1.28,1.14,5.29,5.29,0,0,0,2,.25,9.92,9.92,0,0,0,3.79-1,5.26,5.26,0,0,0,2.45-2.67,14.09,14.09,0,0,0,.85-1.91,5.47,5.47,0,0,0,.4-1.94,1.65,1.65,0,0,0-.36-1.13c-.65-.83-2.05-.48-3.34-.52-.1.21-.18.44,0,.63.32.34,1.08.29,1.6.33-2.21.9-4.19-.08-4.73-1.82.46.58,1.2,1.75,2.32,1.4.41-.12.23-.41.09-.64,0-.07-.17-.07-.25-.1a1.68,1.68,0,0,1-1.2-2Zm6.77,2.42a1.89,1.89,0,0,0,.41-.18.61.61,0,0,1-.34.4.12.12,0,0,1-.07-.22Zm-.14,2.35c0-.1.15-.13.25-.12a3.62,3.62,0,0,0,.57,0,1.09,1.09,0,0,1-.56.33c-.15,0-.29-.09-.26-.2Zm-10.54.6a3.08,3.08,0,0,1,.91-.2,1.46,1.46,0,0,0-.7.39c-.06.09-.12.21,0,.29s.26,0,.38.09.08.21.06.31a2.86,2.86,0,0,1-.45.93.32.32,0,0,0-.08.22c.1,0,.16-.06.23-.09a4.27,4.27,0,0,0,.77-.62c.09-.11.22-.21.24-.35s-.18-.14-.2-.24a.93.93,0,0,1,.5-.35,1.24,1.24,0,0,1,1.34.22,2.93,2.93,0,0,0-.66-.18.26.26,0,0,0-.28.14c0,.13,0,.26,0,.39a1.73,1.73,0,0,1-.93,1.11A2.1,2.1,0,0,0,16,26a.47.47,0,0,0-.16.31,1.06,1.06,0,0,0,.35.05,1.71,1.71,0,0,0,.78-.06c.23-.08.32-.3.56-.38a1.47,1.47,0,0,1,1.65.51c-.19-.09-.35-.21-.56-.29a.74.74,0,0,0-.63.08,1.57,1.57,0,0,0-.41.48c0,.05-.08.13-.18.14s-.31-.11-.47-.07-.43.17-.66.23a1.29,1.29,0,0,1-.48,0,5.75,5.75,0,0,0-.83-.14.51.51,0,0,0-.37.11.68.68,0,0,0-.11.43,5.93,5.93,0,0,1-.25-1.09,4.91,4.91,0,0,1,0-1.38,1.3,1.3,0,0,1,.2.63.24.24,0,0,0,.21.23c.2,0,.31-.14.41-.26a1.07,1.07,0,0,0,.28-.74c0-.13-.19-.13-.25-.22a.46.46,0,0,1-.07-.49.78.78,0,0,1,.45-.38Zm-5.06,2c.08-.05.19,0,.27,0a.41.41,0,0,1,.32.41c0,.18,0,.4-.2.52a10.91,10.91,0,0,0-1.23.63,1.52,1.52,0,0,0-.31.31,2.94,2.94,0,0,1,.61-1.45,1.66,1.66,0,0,1,.54-.43Zm14,1.1c0-.13.09-.23.22-.29a1.4,1.4,0,0,1,.64.22,1.23,1.23,0,0,0,.38.08,1.52,1.52,0,0,1-.82.24c-.19,0-.4-.09-.42-.25Zm-12.2,2a.41.41,0,0,1,.46.1c.13.13.08.3.07.45a.35.35,0,0,1-.21.24c-.3.14-.64.27-.93.41a1.38,1.38,0,0,0-.47.39,2.66,2.66,0,0,1,.27-.76,1.8,1.8,0,0,1,.81-.83Zm9,1.37a.3.3,0,0,1,.29,0,.46.46,0,0,1,.18.28,3.76,3.76,0,0,0,.14.73c0,.1.1.19.15.29a1.74,1.74,0,0,1-.58-.39,1.23,1.23,0,0,1-.36-.59.31.31,0,0,1,.18-.35Zm-6.86.35a.48.48,0,0,1,.56,0,.54.54,0,0,1,.09.57,2.54,2.54,0,0,1-.55.41,1.76,1.76,0,0,0-.75.73,2.72,2.72,0,0,1,.21-1.12,1.58,1.58,0,0,1,.44-.6Zm2.88.91a.34.34,0,0,1,.37-.12.38.38,0,0,1,.22.57c-.19.26-.51.44-.72.7a1.35,1.35,0,0,0-.18.36h0a1.87,1.87,0,0,1,.32-1.51Zm3.91-18c-2.05,2.37-5.3,2.71-7.55,2.81-.25,0-.76.06-.89.24a.29.29,0,0,0,.1.37c2.54,1.79,5.85.48,7.6-.38-2,1.8-5.4,2.12-8.3,1.06-.36-.12-.6-.16-.72,0a.41.41,0,0,0,0,.46c.82,1.51,1.4,2.68,3.47,3.34-2.4-.14-3.9-2.42-4.26-3.64,0,2,1.75,3.44,2.48,4.25-1,0-1.89.11-2.29.83-.29.45-.28,1.1-.68,1.7-1.11-2.08-2-5-1.16-7.5a7.32,7.32,0,0,1,4.34-4.82,19.4,19.4,0,0,0-1.79,2.27c-.45.83.1,1.13.72.06.86,2.08,7,.83,8.65-1.15l.59-.24-.29.37Z"/><path class="cls-1" d="M1,7.37A44.93,44.93,0,0,1,16.57,1h0A44.89,44.89,0,0,1,32.12,7.37v.34A44.88,44.88,0,0,0,16.8,1.35h0A44.21,44.21,0,0,0,1.25,7.52C1.18,19.15,4.35,28.41,9.51,34,4.22,28.49,1,19.17,1,7.37Z"/></svg>